<?xml version="1.0" encoding="UTF-8" standalone="no"?>
<!-- Created with Inkscape (http://www.inkscape.org/) -->

<svg
   width="450"
   height="350"
   viewBox="0 0 119.0625 92.604167"
   version="1.1"
   id="svg1"
   xmlns="http://www.w3.org/2000/svg"
   xmlns:svg="http://www.w3.org/2000/svg">
  <defs
     id="defs1">
    <rect
       x="231.34747"
       y="32.533859"
       width="424.54584"
       height="81.182663"
       id="rect118" />
    <rect
       x="231.34747"
       y="32.533859"
       width="424.54584"
       height="81.182663"
       id="rect119" />
    <rect
       x="231.34747"
       y="32.533859"
       width="424.54584"
       height="81.182663"
       id="rect120" />
    <rect
       x="231.34747"
       y="32.533859"
       width="424.54584"
       height="81.182663"
       id="rect114" />
    <rect
       x="231.34747"
       y="32.533859"
       width="424.54584"
       height="81.182663"
       id="rect115" />
    <rect
       x="231.34747"
       y="32.533859"
       width="424.54584"
       height="81.182663"
       id="rect116" />
    <rect
       x="231.34747"
       y="32.533859"
       width="424.54584"
       height="81.182663"
       id="rect117" />
    <rect
       x="231.34747"
       y="32.533859"
       width="424.54584"
       height="81.182663"
       id="rect120-3" />
    <rect
       x="231.34747"
       y="32.533859"
       width="424.54584"
       height="81.182663"
       id="rect153" />
    <rect
       x="231.34747"
       y="32.533859"
       width="424.54584"
       height="81.182663"
       id="rect155" />
    <rect
       x="231.34747"
       y="32.533859"
       width="424.54584"
       height="81.182663"
       id="rect156" />
    <rect
       x="231.34747"
       y="32.533859"
       width="424.54584"
       height="81.182663"
       id="rect154" />
    <rect
       x="231.34747"
       y="32.533859"
       width="424.54584"
       height="81.182663"
       id="rect111" />
    <rect
       x="231.34747"
       y="32.533859"
       width="424.54584"
       height="81.182663"
       id="rect112" />
    <rect
       x="231.34747"
       y="32.533859"
       width="424.54584"
       height="81.182663"
       id="rect137" />
    <rect
       x="231.34747"
       y="32.533859"
       width="424.54584"
       height="81.182663"
       id="rect140" />
    <rect
       x="231.34747"
       y="32.533859"
       width="424.54584"
       height="81.182663"
       id="rect126" />
    <rect
       x="231.34747"
       y="32.533859"
       width="424.54584"
       height="81.182663"
       id="rect127" />
    <rect
       x="231.34747"
       y="32.533859"
       width="424.54584"
       height="81.182663"
       id="rect128" />
    <rect
       x="231.34747"
       y="32.533859"
       width="424.54584"
       height="81.182663"
       id="rect131" />
    <rect
       x="231.34747"
       y="32.533859"
       width="424.54584"
       height="81.182663"
       id="rect132" />
    <rect
       x="231.34747"
       y="32.533859"
       width="424.54584"
       height="81.182663"
       id="rect158" />
    <rect
       x="231.34747"
       y="32.533859"
       width="424.54584"
       height="81.182663"
       id="rect162" />
  </defs>
  <g
     id="layer1"
     transform="translate(-83.608332,-48.154157)">
    <rect
       style="fill:#ffffff;fill-opacity:1;stroke:none;stroke-width:0.264583;stroke-linecap:round;stroke-dasharray:none;stroke-opacity:1"
       id="rect173"
       width="119.0625"
       height="92.604164"
       x="83.60833"
       y="48.154156" />
    <circle
       style="fill:none;stroke:#000000;stroke-width:0.264583;stroke-dasharray:none;stroke-opacity:1;paint-order:fill markers stroke;stop-color:#000000"
       id="circle78"
       cx="94.816536"
       cy="120.18504"
       r="6.614583" />
    <circle
       style="fill:none;stroke:#000000;stroke-width:0.264583;stroke-dasharray:none;stroke-opacity:1;paint-order:fill markers stroke;stop-color:#000000"
       id="circle79"
       cx="111.77555"
       cy="120.18504"
       r="6.614583" />
    <circle
       style="fill:none;stroke:#000000;stroke-width:0.264583;stroke-dasharray:none;stroke-opacity:1;paint-order:fill markers stroke;stop-color:#000000"
       id="circle80"
       cx="128.73457"
       cy="120.18504"
       r="6.614583" />
    <circle
       style="fill:none;stroke:#000000;stroke-width:0.264583;stroke-dasharray:none;stroke-opacity:1;paint-order:fill markers stroke;stop-color:#000000"
       id="circle81"
       cx="145.69359"
       cy="120.18504"
       r="6.614583" />
    <circle
       style="fill:none;stroke:#000000;stroke-width:0.264583;stroke-dasharray:none;stroke-opacity:1;paint-order:fill markers stroke;stop-color:#000000"
       id="circle82"
       cx="162.6526"
       cy="120.18504"
       r="6.614583" />
    <text
       xml:space="preserve"
       transform="matrix(0.26458333,0,0,0.26458333,69.479136,76.800126)"
       id="text88"
       style="font-style:normal;font-weight:normal;font-size:12px;line-height:1.25;font-family:sans-serif;white-space:pre;shape-inside:url(#rect126);display:inline;fill:#1a1a1a;fill-opacity:1;stroke:none"
       x="22.763672"
       y="0"><tspan
         x="400.53027"
         y="43.165792"
         id="tspan24"><tspan
           style="font-family:'Open Sans';-inkscape-font-specification:'Open Sans';text-align:center;text-anchor:middle"
           id="tspan23">WoT Consumer</tspan></tspan></text>
    <text
       xml:space="preserve"
       transform="matrix(0.26458333,0,0,0.26458333,11.34844,121.77491)"
       id="text90"
       style="font-style:normal;font-weight:normal;font-size:12px;line-height:1.25;font-family:sans-serif;white-space:pre;shape-inside:url(#rect127);display:inline;fill:#000000;fill-opacity:1;stroke:none"
       x="22.763672"
       y="0"><tspan
         x="390.55469"
         y="43.165792"
         id="tspan26"><tspan
           style="font-family:'Open Sans';-inkscape-font-specification:'Open Sans';text-align:center;text-anchor:middle"
           id="tspan25">Connected Devices</tspan></tspan></text>
    <text
       xml:space="preserve"
       transform="matrix(0.26458333,0,0,0.26458333,11.35542,58.201626)"
       id="text94"
       style="font-style:normal;font-weight:normal;font-size:12px;line-height:1.25;font-family:sans-serif;white-space:pre;shape-inside:url(#rect128);display:inline;fill:#ffffff;fill-opacity:1;stroke:none"
       x="22.763672"
       y="0"><tspan
         x="431.12207"
         y="43.165792"
         id="tspan28"><tspan
           style="font-family:'Open Sans';-inkscape-font-specification:'Open Sans';text-align:center;text-anchor:middle;fill:#000000"
           id="tspan27">WoT
</tspan></tspan><tspan
         x="405.9209"
         y="58.181192"
         id="tspan30"><tspan
           style="font-family:'Open Sans';-inkscape-font-specification:'Open Sans';text-align:center;text-anchor:middle;fill:#000000"
           id="tspan29">Cloud Service</tspan></tspan></text>
    <path
       style="fill:none;fill-rule:evenodd;stroke:#9f9f9f;stroke-width:0.264583;stroke-linecap:butt;stroke-linejoin:miter;stroke-dasharray:2.11667, 0.264583;stroke-dashoffset:0;stroke-opacity:1"
       d="m 94.816536,113.57036 7.251194,-8.16362"
       id="path101" />
    <path
       style="fill:none;fill-rule:evenodd;stroke:#9f9f9f;stroke-width:0.264583;stroke-linecap:butt;stroke-linejoin:miter;stroke-dasharray:2.11667, 0.264583;stroke-dashoffset:0;stroke-opacity:1"
       d="m 111.77555,113.57036 0.0695,-8.28008"
       id="path102" />
    <path
       style="fill:none;fill-rule:evenodd;stroke:#9f9f9f;stroke-width:0.264583;stroke-linecap:butt;stroke-linejoin:miter;stroke-dasharray:2.11667, 0.264583;stroke-dashoffset:0;stroke-opacity:1"
       d="m 128.73456,113.57036 -7.25119,-8.16362"
       id="path103" />
    <text
       xml:space="preserve"
       transform="matrix(0.26458333,0,0,0.26458333,1.41663,75.950816)"
       id="text106"
       style="font-style:normal;font-weight:normal;font-size:12px;line-height:1.25;font-family:sans-serif;white-space:pre;shape-inside:url(#rect131);display:inline;fill:#000000;fill-opacity:1;stroke:none"
       x="22.763672"
       y="0"><tspan
         x="413.97461"
         y="43.165792"
         id="tspan32"><tspan
           style="font-family:'Open Sans';-inkscape-font-specification:'Open Sans';text-align:center;text-anchor:middle"
           id="tspan31">Web Thing
</tspan></tspan><tspan
         x="420.19434"
         y="58.181192"
         id="tspan34"><tspan
           style="font-family:'Open Sans';-inkscape-font-specification:'Open Sans';text-align:center;text-anchor:middle"
           id="tspan33">Protocol</tspan></tspan></text>
    <text
       xml:space="preserve"
       transform="matrix(0.26458333,0,0,0.26458333,30.125416,86.597406)"
       id="text110"
       style="font-style:normal;font-weight:normal;font-size:12px;line-height:1.25;font-family:sans-serif;white-space:pre;shape-inside:url(#rect132);display:inline;fill:#000000;fill-opacity:1;stroke:none"
       x="22.763672"
       y="0"><tspan
         x="413.97461"
         y="43.165792"
         id="tspan36"><tspan
           style="font-family:'Open Sans';-inkscape-font-specification:'Open Sans';text-align:center;text-anchor:middle"
           id="tspan35">Web Thing
</tspan></tspan><tspan
         x="420.19434"
         y="58.181192"
         id="tspan38"><tspan
           style="font-family:'Open Sans';-inkscape-font-specification:'Open Sans';text-align:center;text-anchor:middle"
           id="tspan37">Protocol</tspan></tspan></text>
    <path
       style="fill:none;fill-opacity:1;stroke:#000000;stroke-width:0.264583;stroke-linejoin:round;stroke-miterlimit:8.8;stroke-dasharray:none"
       class="st0"
       d="m 108.23029,72.700946 c 0,3.3489 2.61952,6.2804 5.87137,6.2804 h 29.26587 c 3.25176,0 5.87133,-2.9774 5.87133,-6.2804 0,-3.3483 -2.61957,-6.1392 -5.87133,-6.1392 -0.36122,0 -0.67736,-0.047 -1.03873,0.047 -0.18069,-4.0927 -3.20667,-7.3488 -6.86483,-7.3488 -2.12265,0 -3.97449,1.023 -5.23895,2.6977 -1.12919,-3.5816 -4.20026,-6.1398 -7.81334,-6.1398 -4.56154,0 -8.26488,4.1401 -8.26488,9.2572 0,0.4647 0.0456,0.9758 0.0902,1.395 -0.0456,0 -0.0456,0.1387 -0.0902,0.1387 -3.25185,-0.093 -5.91651,2.7445 -5.91651,6.0929 z"
       id="path156" />
    <g
       id="g158"
       transform="translate(23.344936,-375.65555)">
      <path
         id="path157"
         style="fill:none;stroke:#000000;stroke-width:0.264583;stroke-dasharray:none;stroke-opacity:1;paint-order:fill markers stroke;stop-color:#000000"
         d="m 75.883222,464.17218 c -0.08154,0.004 -0.163708,0.0163 -0.245463,0.0382 -0.654038,0.17525 -1.027877,0.88578 -0.838191,1.5937 l 2.000911,7.46776 h -1.859835 c -0.732895,0 -1.322916,0.59003 -1.322916,1.32292 v 5.14025 c 0,0.7329 0.590021,1.32344 1.322916,1.32344 h 32.603696 c 0.7329,0 1.32292,-0.59054 1.32292,-1.32344 v -5.14025 c 0,-0.73289 -0.59002,-1.32292 -1.32292,-1.32292 h -1.86035 l 2.00091,-7.46776 c 0.18968,-0.70792 -0.18416,-1.41845 -0.83819,-1.5937 -0.65404,-0.17525 -1.33322,0.25326 -1.52291,0.96118 l -2.17041,8.10028 H 79.331074 l -2.169893,-8.10028 c -0.165976,-0.61943 -0.707199,-1.02507 -1.277959,-0.99942 z" />
      <text
         xml:space="preserve"
         transform="matrix(0.26458333,0,0,0.26458333,-26.137498,466.5961)"
         id="text158"
         style="font-style:normal;font-variant:normal;font-weight:normal;font-stretch:normal;font-size:12px;line-height:1.25;font-family:'Open Sans';-inkscape-font-specification:'Open Sans';white-space:pre;shape-inside:url(#rect158);display:inline;fill:#000000;fill-opacity:1;stroke:none"
         x="22.763672"
         y="0"><tspan
           x="405.34668"
           y="43.165792"
           id="tspan40"><tspan
             style="text-align:center;text-anchor:middle"
             id="tspan39">WoT Gateway</tspan></tspan></text>
    </g>
    <g
       id="g160"
       transform="translate(95.741946,-315.23622)">
      <rect
         style="fill:none;stroke:#000000;stroke-width:0.264583;stroke-dasharray:none;stroke-opacity:1;paint-order:fill markers stroke;stop-color:#000000"
         id="rect159"
         width="18.669626"
         height="11.86103"
         x="380.18021"
         y="-97.040642"
         ry="1.3229167"
         rx="1.3229165"
         transform="rotate(90)" />
      <rect
         style="fill:none;stroke:#000000;stroke-width:0.264583;stroke-dasharray:none;stroke-opacity:1;paint-order:fill markers stroke;stop-color:#000000"
         id="rect160"
         width="14.487571"
         height="9.2826719"
         x="381.77167"
         y="-95.751465"
         transform="rotate(90)" />
    </g>
    <g
       id="g162"
       transform="translate(-99.339949,-404.29546)">
      <text
         xml:space="preserve"
         transform="matrix(0.26458333,0,0,0.26458333,147.33716,464.77961)"
         id="text161"
         style="font-style:normal;font-weight:normal;font-size:12px;line-height:1.25;font-family:sans-serif;white-space:pre;shape-inside:url(#rect162);display:inline;fill:#000000;fill-opacity:1;stroke:none"
         x="22.763672"
         y="0"><tspan
           x="413.97461"
           y="43.165792"
           id="tspan42"><tspan
             style="font-family:'Open Sans';-inkscape-font-specification:'Open Sans';text-align:center;text-anchor:middle"
             id="tspan41">Web Thing
</tspan></tspan><tspan
           x="420.19434"
           y="58.181192"
           id="tspan44"><tspan
             style="font-family:'Open Sans';-inkscape-font-specification:'Open Sans';text-align:center;text-anchor:middle"
             id="tspan43">Protocol</tspan></tspan></text>
      <path
         style="display:inline;fill:none;fill-rule:evenodd;stroke:#000000;stroke-width:0.264583;stroke-linecap:butt;stroke-linejoin:miter;stroke-dasharray:none;stroke-opacity:1"
         d="m 280.25169,476.99635 -6.38372,8.4e-4"
         id="path161" />
      <path
         style="display:inline;fill:none;fill-rule:evenodd;stroke:#000000;stroke-width:0.264583;stroke-linecap:butt;stroke-linejoin:miter;stroke-dasharray:none;stroke-opacity:1"
         d="m 256.42074,477.03269 -7.84193,-0.0363"
         id="path162" />
    </g>
    <path
       style="fill:none;fill-rule:evenodd;stroke:#000000;stroke-width:0.264583;stroke-linecap:butt;stroke-linejoin:miter;stroke-dasharray:none;stroke-opacity:1"
       d="m 114.58736,97.620223 2.27664,-5.63336"
       id="path163" />
    <path
       style="fill:none;fill-rule:evenodd;stroke:#000000;stroke-width:0.264583;stroke-linecap:butt;stroke-linejoin:miter;stroke-dasharray:none;stroke-opacity:1"
       d="m 119.93494,84.388056 2.18504,-5.40671"
       id="path164" />
    <path
       style="fill:none;fill-rule:evenodd;stroke:#000000;stroke-width:0.264583;stroke-linecap:butt;stroke-linejoin:miter;stroke-dasharray:none;stroke-opacity:1"
       d="m 145.97632,113.58249 -3.07614,-9.89332"
       id="path165" />
    <path
       style="fill:none;fill-rule:evenodd;stroke:#000000;stroke-width:0.264583;stroke-linecap:butt;stroke-linejoin:miter;stroke-dasharray:none;stroke-opacity:1"
       d="M 140.24358,94.291883 135.91532,78.981346"
       id="path166" />
    <path
       style="display:inline;fill:none;fill-rule:evenodd;stroke:#000000;stroke-width:0.264583;stroke-linecap:butt;stroke-linejoin:miter;stroke-dasharray:none;stroke-opacity:1"
       d="m 162.65259,113.57036 -7.20141,-12.9162"
       id="path167" />
    <path
       style="display:inline;fill:none;fill-rule:evenodd;stroke:#000000;stroke-width:0.264583;stroke-linecap:butt;stroke-linejoin:miter;stroke-dasharray:none;stroke-opacity:1"
       d="m 152.12793,94.693703 -8.7604,-15.712357"
       id="path168" />
  </g>
</svg>
